<svg width="17" height="16" viewBox="0 0 17 16" fill="none" xmlns="http://www.w3.org/2000/svg">
<path fill-rule="evenodd" clip-rule="evenodd" d="M14.5433 1.33325H3.17666C2.63778 1.33325 2.19333 1.76103 2.19333 2.28881V13.7111C2.19333 14.2388 2.63778 14.6666 3.17666 14.6666H14.5433C15.0878 14.6666 15.5267 14.2388 15.5267 13.7111V2.28881C15.5267 1.76103 15.0822 1.33325 14.5433 1.33325ZM6.23222 12.4999H4.22111V6.46659H6.23222V12.4999ZM5.23222 5.64437H5.21555C4.53778 5.64437 4.10444 5.18325 4.10444 4.60547C4.10444 4.01659 4.54888 3.56659 5.24333 3.56659C5.93222 3.56659 6.35444 4.01103 6.36555 4.60547C6.36555 5.18325 5.93222 5.64437 5.22666 5.64437H5.23222ZM13.4933 12.4999H11.4767V9.27772C11.4767 8.47212 11.1878 7.91659 10.46 7.91659C9.90446 7.91659 9.57113 8.28879 9.42113 8.64992C9.36553 8.77772 9.36 8.95545 9.36 9.13879V12.4999H7.34888C7.34888 12.4999 7.37666 7.04439 7.34888 6.4777H9.36553V7.33325C9.7366 6.68932 10.4341 6.3042 11.1767 6.33325C12.5045 6.33325 13.4989 7.19992 13.4989 9.04992V12.4999H13.4933Z" fill="#111111"/>
</svg>
