<svg width="20" height="21" viewBox="0 0 20 21" fill="none" xmlns="http://www.w3.org/2000/svg">
<g clip-path="url(#clip0_2088_3810)">
<path d="M12.5333 19.2585L12.5433 19.2644C13.4284 19.8279 14.4793 20.0726 15.5223 19.9582C16.5653 19.8439 17.5381 19.3771 18.28 18.6352L18.925 17.9902C19.2131 17.7018 19.3749 17.3108 19.3749 16.9031C19.3749 16.4955 19.2131 16.1045 18.925 15.816L16.2075 13.1002C15.9191 12.8121 15.5281 12.6503 15.1204 12.6503C14.7128 12.6503 14.3218 12.8121 14.0333 13.1002C13.8907 13.243 13.7213 13.3563 13.5348 13.4336C13.3484 13.5109 13.1485 13.5507 12.9467 13.5507C12.7448 13.5507 12.545 13.5109 12.3585 13.4336C12.172 13.3563 12.0026 13.243 11.86 13.1002L7.51167 8.75103C7.2236 8.46259 7.06179 8.0716 7.06179 7.66394C7.06179 7.25629 7.2236 6.8653 7.51167 6.57686C7.65449 6.43422 7.76779 6.26483 7.84509 6.07837C7.92239 5.89191 7.96218 5.69204 7.96218 5.49019C7.96218 5.28835 7.92239 5.08848 7.84509 4.90202C7.76779 4.71556 7.65449 4.54617 7.51167 4.40353L4.79501 1.68353C4.50657 1.39545 4.11558 1.23364 3.70792 1.23364C3.30027 1.23364 2.90928 1.39545 2.62084 1.68353L1.97584 2.32853C1.23403 3.07051 0.767351 4.04323 0.652817 5.08616C0.538282 6.12909 0.782737 7.17991 1.34584 8.06519L1.35251 8.07519C4.33035 12.4834 8.12582 16.2797 12.5333 19.2585Z" stroke="#FCFCFD" stroke-width="1.25" stroke-linecap="round" stroke-linejoin="round"/>
</g>
<defs>
<clipPath id="clip0_2088_3810">
<rect width="20" height="20" fill="white" transform="translate(0 0.600098)"/>
</clipPath>
</defs>
</svg>
