<svg width="17" height="16" viewBox="0 0 17 16" fill="none" xmlns="http://www.w3.org/2000/svg">
<path fill-rule="evenodd" clip-rule="evenodd" d="M6.38637 13.4172C11.4178 13.4172 14.1698 9.24862 14.1698 5.63366C14.1698 5.51526 14.1698 5.39739 14.1618 5.28006C14.6972 4.89281 15.1594 4.41333 15.5266 3.86406C15.0274 4.08529 14.4978 4.23037 13.9554 4.29446C14.5265 3.95258 14.9539 3.41487 15.1581 2.7814C14.6211 3.10004 14.0336 3.3246 13.421 3.44539C12.5731 2.54374 11.2257 2.32305 10.1344 2.90709C9.0431 3.49112 8.4793 4.73464 8.75916 5.94032C6.55965 5.83006 4.51035 4.79116 3.1213 3.0822C2.39523 4.33214 2.76609 5.93118 3.96823 6.73395C3.53289 6.72102 3.10704 6.60359 2.72663 6.39153C2.72663 6.40273 2.72663 6.41446 2.72663 6.4262C2.72698 7.72835 3.6449 8.84995 4.9213 9.10782C4.51857 9.21762 4.09601 9.23368 3.6861 9.15475C4.04447 10.2691 5.07147 11.0325 6.24183 11.0545C5.27316 11.8158 4.07653 12.229 2.8445 12.2278C2.62685 12.2274 2.40941 12.2142 2.1933 12.1883C3.44431 12.9911 4.89992 13.417 6.38637 13.415" fill="#111111"/>
</svg>
